# xmcd
#
# Track frame offsets:
#	150
#	15283
#	31112
#	48778
#	62431
#	76906
#	94492
#	111155
#
# Disc length: 1690 seconds
#
# Revision: 1
# Processed by: cddbd v1.5.2PL0 Copyright (c) Steve Scherf et al.
# Submitted via: audiograbber 1.83.01
#
DISCID=50069808
DTITLE=Various Artist - CDX 655
DYEAR=2017
DGENRE=Country
TTITLE0=Jon Pardi - She Ain't In It
TTITLE1=Shania Twain - We Got Something They Don't
TTITLE2=The Band Steele - 195
TTITLE3=Terry McBride - Boots Off
TTITLE4=AC Jones - Buses And Trains
TTITLE5=David Lee Murphy and Kenny Chesney - Everything's Gonna Be Alright
TTITLE6=TIM elliott - I Got You
TTITLE7=Vince Hatfield - Rattlesnakes And Tornados
EXTD=
EXTT0=
EXTT1=
EXTT2=
EXTT3=
EXTT4=
EXTT5=
EXTT6=
EXTT7=
PLAYORDER=
